<svg class="svg-icon" data-name="per overview" xmlns="http://www.w3.org/2000/svg" viewBox="0 0 402 402" fill="#4a4a4a"><defs><rect x="5.5" y="45.84" width="391" height="310.32" fill="none"></rect></defs><title>mb_home_icon</title><g><path d="M199.59,108.2L61.14,222.35a2.75,2.75,0,0,1-.11.72,3.72,3.72,0,0,0-.11.72V339.36a15.65,15.65,0,0,0,15.4,15.41h92.47V262.3h61.65v92.47h92.46a15.65,15.65,0,0,0,15.41-15.41V223.79a3.36,3.36,0,0,0-.24-1.44Zm0,0"></path><path d="M391,196.34l-52.73-43.82V54.27a7.41,7.41,0,0,0-7.71-7.7H284.36a7.41,7.41,0,0,0-7.71,7.7v47L217.9,52.11a29.85,29.85,0,0,0-36.6,0L8.17,196.34a7,7,0,0,0-2.64,5.17,7.86,7.86,0,0,0,1.69,5.67L22.14,225a8.2,8.2,0,0,0,5.05,2.66A9,9,0,0,0,33,226L199.59,87,366.23,226a7.38,7.38,0,0,0,5.05,1.69H372a8.23,8.23,0,0,0,5.05-2.66L392,207.16a7.79,7.79,0,0,0,1.67-5.66,7,7,0,0,0-2.66-5.17h0Zm0,0"></path></g></svg>